# xmcd
#
# Track frame offsets:
#	150
#	14095
#	27909
#	44673
#	56834
#	71790
#	83520
#	101222
#	114909
#	127845
#	143483
#	154796
#	169188
#	190191
#
# Disc length: 2742 seconds
#
# Revision: 1
# Processed by: cddbd v1.5.2PL0 Copyright (c) Steve Scherf et al.
# Submitted via: audiograbber 1.83.01
#
DISCID=bd0ab40e
DTITLE=Memphis Slim - Going Back To Tennessee
DYEAR=1900
DGENRE=Blues
TTITLE0=Going back to Tennessee
TTITLE1=Bootleggin'
TTITLE2=Good blues bad
TTITLE3=Shake that thing
TTITLE4=Losers weepers
TTITLE5=A good woman is hard to find
TTITLE6=Blues cowboy
TTITLE7=Poor man blue
TTITLE8=I'd like to be loved
TTITLE9=Boxcar
TTITLE10=What is the blues
TTITLE11=Headed for Nashville
TTITLE12=Just mention my name in Memphis
TTITLE13=Jerusalem
EXTD=
EXTT0=
EXTT1=
EXTT2=
EXTT3=
EXTT4=
EXTT5=
EXTT6=
EXTT7=
EXTT8=
EXTT9=
EXTT10=
EXTT11=
EXTT12=
EXTT13=
PLAYORDER=
